<?xml version="1.0" encoding="UTF-8" standalone="no"?>
<!DOCTYPE svg PUBLIC "-//W3C//DTD SVG 1.1//EN" "http://www.w3.org/Graphics/SVG/1.1/DTD/svg11.dtd">
<svg xmlns="http://www.w3.org/2000/svg" version="1.1" viewBox="0 0 400 300">
<g stroke-width="2.00" fill="none" stroke-linecap="butt">
<!-- <path stroke="#818181" vector-effect="non-scaling-stroke" d="
  M 242.15 166.41
  Q 243.71 167.58 241.76 167.56
  Q 225.78 167.46 210.07 167.49
  Q 205.32 167.50 203.53 168.23
  Q 200.09 169.62 198.83 173.51
  A 1.34 1.34 -63.6 0 0 199.34 175.03
  L 218.58 188.46
  A 0.36 0.36 25.8 0 0 219.13 188.27
  Q 220.15 184.72 222.95 182.98
  Q 224.95 181.75 229.30 181.70
  Q 240.26 181.56 251.09 181.99
  A 0.71 0.70 -89.2 0 1 251.76 182.69
  L 251.93 207.23
  Q 251.94 208.30 251.08 207.70
  Q 247.06 204.92 243.03 202.19
  Q 242.94 202.12 240.15 200.12
  Q 231.21 193.74 220.00 193.57
  Q 213.09 193.47 208.81 196.81
  Q 204.75 199.98 204.50 206.25
  Q 204.26 212.12 207.20 215.76
  Q 208.10 216.88 214.55 221.44
  Q 219.63 225.04 224.73 228.62
  Q 231.61 233.45 235.45 234.80
  Q 242.67 237.32 250.84 236.20
  A 0.88 0.87 -8.5 0 1 251.82 236.92
  Q 252.66 241.92 251.91 246.14
  Q 251.46 248.69 249.91 249.61
  Q 248.23 250.60 245.56 250.44
  Q 242.98 250.29 245.13 251.73
  Q 253.43 257.28 261.62 263.11
  Q 263.61 264.53 267.75 264.50
  Q 271.82 264.47 272.50 261.00
  Q 273.00 258.45 272.78 254.49
  Q 272.49 249.46 272.49 248.00
  Q 272.47 237.11 272.55 226.21
  Q 272.55 225.04 273.27 222.04
  Q 273.80 219.83 273.23 217.66
  Q 272.48 214.84 272.47 213.71
  Q 272.25 198.11 273.52 182.56
  A 0.55 0.53 1.7 0 1 274.06 182.07
  L 311.15 181.71
  A 1.23 1.21 -2.2 0 1 312.39 182.83
  Q 312.76 187.74 312.03 191.72
  Q 311.49 194.63 309.91 196.20
  Q 307.89 198.19 305.00 198.25
  Q 293.62 198.47 290.75 199.00
  Q 285.27 200.01 283.31 204.56
  Q 280.88 210.23 282.81 216.94
  Q 284.44 222.56 289.12 226.99
  Q 290.56 228.36 298.38 233.98
  Q 302.93 237.25 307.55 240.42
  Q 316.19 246.35 316.80 246.71
  Q 325.48 251.90 335.62 252.66
  A 2.84 2.84 -24.9 0 1 337.07 253.19
  Q 351.24 263.59 363.94 272.06
  Q 372.83 278.00 380.27 280.59
  Q 380.78 280.76 381.26 280.81
  Q 383.75 281.04 381.97 279.80
  Q 372.88 273.49 363.85 267.10
  A 1.75 1.72 -26.3 0 0 362.94 266.80
  Q 355.92 266.57 350.80 262.34
  Q 349.04 260.90 345.75 257.60
  Q 343.42 255.27 341.24 252.30
  A 0.55 0.54 60.1 0 1 341.46 251.47
  Q 345.69 249.71 347.00 246.12
  Q 347.78 243.97 347.25 241.82
  Q 346.66 239.45 344.69 238.06
  Q 335.54 231.63 326.42 225.15
  Q 323.47 223.05 321.65 222.50
  Q 317.03 221.08 316.18 225.50
  Q 315.65 228.22 316.99 231.34
  Q 318.18 234.11 320.15 236.54
  A 0.71 0.70 64.1 0 1 319.76 237.67
  Q 312.79 239.24 306.16 236.98
  A 1.49 1.38 -4.7 0 1 305.42 236.40
  Q 301.35 229.99 302.94 221.94
  Q 304.33 214.89 311.00 213.25
  Q 313.67 212.59 323.64 212.51
  Q 326.51 212.49 327.80 212.03
  Q 330.00 211.26 331.27 209.43
  Q 332.48 207.69 332.61 203.79
  Q 332.85 196.81 332.81 189.82
  A 0.97 0.97 -17.3 0 1 333.23 189.02
  L 353.26 174.92
  A 0.81 0.80 -23.7 0 0 353.59 174.08
  Q 352.86 170.64 350.35 168.93
  Q 348.64 167.77 344.88 167.68
  Q 324.08 167.19 320.00 167.75
  Q 316.87 168.18 314.50 166.24
  Q 312.59 164.67 312.45 167.18
  A 0.53 0.52 -88.2 0 1 311.93 167.68
  L 258.28 167.44
  A 0.77 0.76 79.3 0 1 257.57 166.95
  Q 252.12 153.08 243.69 140.81
  Q 235.43 128.80 222.04 119.41
  Q 216.65 115.63 211.20 111.93
  Q 200.88 104.91 200.30 104.54
  Q 187.88 96.71 173.49 93.03
  Q 157.27 88.89 146.00 87.75
  Q 120.02 85.13 106.00 83.50
  Q 86.05 81.18 66.51 73.97
  Q 59.06 71.22 51.44 65.06
  Q 46.27 60.88 36.23 54.58
  Q 35.81 54.31 36.19 54.64
  Q 43.42 60.98 51.36 66.43
  Q 60.92 72.99 70.56 79.44
  Q 79.15 85.19 91.81 89.69
  Q 106.70 94.98 126.00 97.52
  Q 141.21 99.52 156.48 100.93
  Q 161.37 101.39 166.26 101.88
  Q 180.14 103.28 193.56 106.85
  Q 204.40 109.73 208.26 111.66
  Q 215.33 115.20 220.31 121.94
  Q 234.48 141.09 241.06 163.58
  Q 241.09 163.68 241.36 164.93
  Q 241.59 166.00 242.15 166.41"
/> -->
<path stroke="#818181" vector-effect="non-scaling-stroke" d="
  M 250.83 209.19
  Q 247.38 207.99 243.81 207.75
  Q 239.75 207.48 236.70 207.98
  Q 231.70 208.80 228.16 212.43
  Q 226.30 214.34 225.53 216.55
  Q 224.76 218.80 224.75 221.48
  A 0.78 0.78 0.0 0 0 225.53 222.26
  Q 230.56 222.20 234.99 221.16
  Q 245.20 218.76 251.27 210.66
  A 0.95 0.95 -61.8 0 0 250.83 209.19"
/>
</g>
<!-- <path fill="#ffffff" d="
  M 0.00 0.00
  L 400.00 0.00
  L 400.00 300.00
  L 0.00 300.00
  L 0.00 0.00
  Z
  M 242.15 166.41
  Q 243.71 167.58 241.76 167.56
  Q 225.78 167.46 210.07 167.49
  Q 205.32 167.50 203.53 168.23
  Q 200.09 169.62 198.83 173.51
  A 1.34 1.34 -63.6 0 0 199.34 175.03
  L 218.58 188.46
  A 0.36 0.36 25.8 0 0 219.13 188.27
  Q 220.15 184.72 222.95 182.98
  Q 224.95 181.75 229.30 181.70
  Q 240.26 181.56 251.09 181.99
  A 0.71 0.70 -89.2 0 1 251.76 182.69
  L 251.93 207.23
  Q 251.94 208.30 251.08 207.70
  Q 247.06 204.92 243.03 202.19
  Q 242.94 202.12 240.15 200.12
  Q 231.21 193.74 220.00 193.57
  Q 213.09 193.47 208.81 196.81
  Q 204.75 199.98 204.50 206.25
  Q 204.26 212.12 207.20 215.76
  Q 208.10 216.88 214.55 221.44
  Q 219.63 225.04 224.73 228.62
  Q 231.61 233.45 235.45 234.80
  Q 242.67 237.32 250.84 236.20
  A 0.88 0.87 -8.5 0 1 251.82 236.92
  Q 252.66 241.92 251.91 246.14
  Q 251.46 248.69 249.91 249.61
  Q 248.23 250.60 245.56 250.44
  Q 242.98 250.29 245.13 251.73
  Q 253.43 257.28 261.62 263.11
  Q 263.61 264.53 267.75 264.50
  Q 271.82 264.47 272.50 261.00
  Q 273.00 258.45 272.78 254.49
  Q 272.49 249.46 272.49 248.00
  Q 272.47 237.11 272.55 226.21
  Q 272.55 225.04 273.27 222.04
  Q 273.80 219.83 273.23 217.66
  Q 272.48 214.84 272.47 213.71
  Q 272.25 198.11 273.52 182.56
  A 0.55 0.53 1.7 0 1 274.06 182.07
  L 311.15 181.71
  A 1.23 1.21 -2.2 0 1 312.39 182.83
  Q 312.76 187.74 312.03 191.72
  Q 311.49 194.63 309.91 196.20
  Q 307.89 198.19 305.00 198.25
  Q 293.62 198.47 290.75 199.00
  Q 285.27 200.01 283.31 204.56
  Q 280.88 210.23 282.81 216.94
  Q 284.44 222.56 289.12 226.99
  Q 290.56 228.36 298.38 233.98
  Q 302.93 237.25 307.55 240.42
  Q 316.19 246.35 316.80 246.71
  Q 325.48 251.90 335.62 252.66
  A 2.84 2.84 -24.9 0 1 337.07 253.19
  Q 351.24 263.59 363.94 272.06
  Q 372.83 278.00 380.27 280.59
  Q 380.78 280.76 381.26 280.81
  Q 383.75 281.04 381.97 279.80
  Q 372.88 273.49 363.85 267.10
  A 1.75 1.72 -26.3 0 0 362.94 266.80
  Q 355.92 266.57 350.80 262.34
  Q 349.04 260.90 345.75 257.60
  Q 343.42 255.27 341.24 252.30
  A 0.55 0.54 60.1 0 1 341.46 251.47
  Q 345.69 249.71 347.00 246.12
  Q 347.78 243.97 347.25 241.82
  Q 346.66 239.45 344.69 238.06
  Q 335.54 231.63 326.42 225.15
  Q 323.47 223.05 321.65 222.50
  Q 317.03 221.08 316.18 225.50
  Q 315.65 228.22 316.99 231.34
  Q 318.18 234.11 320.15 236.54
  A 0.71 0.70 64.1 0 1 319.76 237.67
  Q 312.79 239.24 306.16 236.98
  A 1.49 1.38 -4.7 0 1 305.42 236.40
  Q 301.35 229.99 302.94 221.94
  Q 304.33 214.89 311.00 213.25
  Q 313.67 212.59 323.64 212.51
  Q 326.51 212.49 327.80 212.03
  Q 330.00 211.26 331.27 209.43
  Q 332.48 207.69 332.61 203.79
  Q 332.85 196.81 332.81 189.82
  A 0.97 0.97 -17.3 0 1 333.23 189.02
  L 353.26 174.92
  A 0.81 0.80 -23.7 0 0 353.59 174.08
  Q 352.86 170.64 350.35 168.93
  Q 348.64 167.77 344.88 167.68
  Q 324.08 167.19 320.00 167.75
  Q 316.87 168.18 314.50 166.24
  Q 312.59 164.67 312.45 167.18
  A 0.53 0.52 -88.2 0 1 311.93 167.68
  L 258.28 167.44
  A 0.77 0.76 79.3 0 1 257.57 166.95
  Q 252.12 153.08 243.69 140.81
  Q 235.43 128.80 222.04 119.41
  Q 216.65 115.63 211.20 111.93
  Q 200.88 104.91 200.30 104.54
  Q 187.88 96.71 173.49 93.03
  Q 157.27 88.89 146.00 87.75
  Q 120.02 85.13 106.00 83.50
  Q 86.05 81.18 66.51 73.97
  Q 59.06 71.22 51.44 65.06
  Q 46.27 60.88 36.23 54.58
  Q 35.81 54.31 36.19 54.64
  Q 43.42 60.98 51.36 66.43
  Q 60.92 72.99 70.56 79.44
  Q 79.15 85.19 91.81 89.69
  Q 106.70 94.98 126.00 97.52
  Q 141.21 99.52 156.48 100.93
  Q 161.37 101.39 166.26 101.88
  Q 180.14 103.28 193.56 106.85
  Q 204.40 109.73 208.26 111.66
  Q 215.33 115.20 220.31 121.94
  Q 234.48 141.09 241.06 163.58
  Q 241.09 163.68 241.36 164.93
  Q 241.59 166.00 242.15 166.41
  Z"
/> -->
<path fill="#020202" d="
  M 242.15 166.41
  Q 241.59 166.00 241.36 164.93
  Q 241.09 163.68 241.06 163.58
  Q 234.48 141.09 220.31 121.94
  Q 215.33 115.20 208.26 111.66
  Q 204.40 109.73 193.56 106.85
  Q 180.14 103.28 166.26 101.88
  Q 161.37 101.39 156.48 100.93
  Q 141.21 99.52 126.00 97.52
  Q 106.70 94.98 91.81 89.69
  Q 79.15 85.19 70.56 79.44
  Q 60.92 72.99 51.36 66.43
  Q 43.42 60.98 36.19 54.64
  Q 35.81 54.31 36.23 54.58
  Q 46.27 60.88 51.44 65.06
  Q 59.06 71.22 66.51 73.97
  Q 86.05 81.18 106.00 83.50
  Q 120.02 85.13 146.00 87.75
  Q 157.27 88.89 173.49 93.03
  Q 187.88 96.71 200.30 104.54
  Q 200.88 104.91 211.20 111.93
  Q 216.65 115.63 222.04 119.41
  Q 235.43 128.80 243.69 140.81
  Q 252.12 153.08 257.57 166.95
  A 0.77 0.76 79.3 0 0 258.28 167.44
  L 311.93 167.68
  A 0.53 0.52 -88.2 0 0 312.45 167.18
  Q 312.59 164.67 314.50 166.24
  Q 316.87 168.18 320.00 167.75
  Q 324.08 167.19 344.88 167.68
  Q 348.64 167.77 350.35 168.93
  Q 352.86 170.64 353.59 174.08
  A 0.81 0.80 -23.7 0 1 353.26 174.92
  L 333.23 189.02
  A 0.97 0.97 -17.3 0 0 332.81 189.82
  Q 332.85 196.81 332.61 203.79
  Q 332.48 207.69 331.27 209.43
  Q 330.00 211.26 327.80 212.03
  Q 326.51 212.49 323.64 212.51
  Q 313.67 212.59 311.00 213.25
  Q 304.33 214.89 302.94 221.94
  Q 301.35 229.99 305.42 236.40
  A 1.49 1.38 -4.7 0 0 306.16 236.98
  Q 312.79 239.24 319.76 237.67
  A 0.71 0.70 64.1 0 0 320.15 236.54
  Q 318.18 234.11 316.99 231.34
  Q 315.65 228.22 316.18 225.50
  Q 317.03 221.08 321.65 222.50
  Q 323.47 223.05 326.42 225.15
  Q 335.54 231.63 344.69 238.06
  Q 346.66 239.45 347.25 241.82
  Q 347.78 243.97 347.00 246.12
  Q 345.69 249.71 341.46 251.47
  A 0.55 0.54 60.1 0 0 341.24 252.30
  Q 343.42 255.27 345.75 257.60
  Q 349.04 260.90 350.80 262.34
  Q 355.92 266.57 362.94 266.80
  A 1.75 1.72 -26.3 0 1 363.85 267.10
  Q 372.88 273.49 381.97 279.80
  Q 383.75 281.04 381.26 280.81
  Q 380.78 280.76 380.27 280.59
  Q 372.83 278.00 363.94 272.06
  Q 351.24 263.59 337.07 253.19
  A 2.84 2.84 -24.9 0 0 335.62 252.66
  Q 325.48 251.90 316.80 246.71
  Q 316.19 246.35 307.55 240.42
  Q 302.93 237.25 298.38 233.98
  Q 290.56 228.36 289.12 226.99
  Q 284.44 222.56 282.81 216.94
  Q 280.88 210.23 283.31 204.56
  Q 285.27 200.01 290.75 199.00
  Q 293.62 198.47 305.00 198.25
  Q 307.89 198.19 309.91 196.20
  Q 311.49 194.63 312.03 191.72
  Q 312.76 187.74 312.39 182.83
  A 1.23 1.21 -2.2 0 0 311.15 181.71
  L 274.06 182.07
  A 0.55 0.53 1.7 0 0 273.52 182.56
  Q 272.25 198.11 272.47 213.71
  Q 272.48 214.84 273.23 217.66
  Q 273.80 219.83 273.27 222.04
  Q 272.55 225.04 272.55 226.21
  Q 272.47 237.11 272.49 248.00
  Q 272.49 249.46 272.78 254.49
  Q 273.00 258.45 272.50 261.00
  Q 271.82 264.47 267.75 264.50
  Q 263.61 264.53 261.62 263.11
  Q 253.43 257.28 245.13 251.73
  Q 242.98 250.29 245.56 250.44
  Q 248.23 250.60 249.91 249.61
  Q 251.46 248.69 251.91 246.14
  Q 252.66 241.92 251.82 236.92
  A 0.88 0.87 -8.5 0 0 250.84 236.20
  Q 242.67 237.32 235.45 234.80
  Q 231.61 233.45 224.73 228.62
  Q 219.63 225.04 214.55 221.44
  Q 208.10 216.88 207.20 215.76
  Q 204.26 212.12 204.50 206.25
  Q 204.75 199.98 208.81 196.81
  Q 213.09 193.47 220.00 193.57
  Q 231.21 193.74 240.15 200.12
  Q 242.94 202.12 243.03 202.19
  Q 247.06 204.92 251.08 207.70
  Q 251.94 208.30 251.93 207.23
  L 251.76 182.69
  A 0.71 0.70 -89.2 0 0 251.09 181.99
  Q 240.26 181.56 229.30 181.70
  Q 224.95 181.75 222.95 182.98
  Q 220.15 184.72 219.13 188.27
  A 0.36 0.36 25.8 0 1 218.58 188.46
  L 199.34 175.03
  A 1.34 1.34 -63.6 0 1 198.83 173.51
  Q 200.09 169.62 203.53 168.23
  Q 205.32 167.50 210.07 167.49
  Q 225.78 167.46 241.76 167.56
  Q 243.71 167.58 242.15 166.41
  Z
  M 250.83 209.19
  Q 247.38 207.99 243.81 207.75
  Q 239.75 207.48 236.70 207.98
  Q 231.70 208.80 228.16 212.43
  Q 226.30 214.34 225.53 216.55
  Q 224.76 218.80 224.75 221.48
  A 0.78 0.78 0.0 0 0 225.53 222.26
  Q 230.56 222.20 234.99 221.16
  Q 245.20 218.76 251.27 210.66
  A 0.95 0.95 -61.8 0 0 250.83 209.19
  Z"
/>
<path fill="#ffffff" d="
  M 250.83 209.19
  A 0.95 0.95 -61.8 0 1 251.27 210.66
  Q 245.20 218.76 234.99 221.16
  Q 230.56 222.20 225.53 222.26
  A 0.78 0.78 0.0 0 1 224.75 221.48
  Q 224.76 218.80 225.53 216.55
  Q 226.30 214.34 228.16 212.43
  Q 231.70 208.80 236.70 207.98
  Q 239.75 207.48 243.81 207.75
  Q 247.38 207.99 250.83 209.19
  Z"
/>
</svg>
